<?xml version="1.0" encoding="UTF-8" standalone="no"?>
<!-- Created with Inkscape (http://www.inkscape.org/) -->

<svg
   xmlns:dc="http://purl.org/dc/elements/1.1/"
   xmlns:cc="http://creativecommons.org/ns#"
   xmlns:rdf="http://www.w3.org/1999/02/22-rdf-syntax-ns#"
   xmlns:svg="http://www.w3.org/2000/svg"
   xmlns="http://www.w3.org/2000/svg"
   xmlns:sodipodi="http://sodipodi.sourceforge.net/DTD/sodipodi-0.dtd"
   xmlns:inkscape="http://www.inkscape.org/namespaces/inkscape"
   width="200mm"
   height="200mm"
   viewBox="0 0 200 200"
   version="1.1"
   id="svg8"
   sodipodi:docname="logo.svg"
   inkscape:version="0.92.1 r">
  <defs
     id="defs2">
    <inkscape:path-effect
       effect="powerstroke"
       id="path-effect4557"
       is_visible="true"
       offset_points="0,0.13229166"
       sort_points="true"
       interpolator_type="CubicBezierJohan"
       interpolator_beta="0.2"
       start_linecap_type="zerowidth"
       linejoin_type="extrp_arc"
       miter_limit="4"
       end_linecap_type="zerowidth" />
  </defs>
  <sodipodi:namedview
     id="base"
     pagecolor="#ffffff"
     bordercolor="#666666"
     borderopacity="1.0"
     inkscape:pageopacity="0.0"
     inkscape:pageshadow="2"
     inkscape:zoom="0.98994949"
     inkscape:cx="277.5522"
     inkscape:cy="447.279"
     inkscape:document-units="mm"
     inkscape:current-layer="layer1"
     showgrid="true"
     inkscape:window-width="1920"
     inkscape:window-height="1028"
     inkscape:window-x="0"
     inkscape:window-y="0"
     inkscape:window-maximized="1" />
  <metadata
     id="metadata5">
    <rdf:RDF>
      <cc:Work
         rdf:about="">
        <dc:format>image/svg+xml</dc:format>
        <dc:type
           rdf:resource="http://purl.org/dc/dcmitype/StillImage" />
        <dc:title></dc:title>
      </cc:Work>
    </rdf:RDF>
  </metadata>
  <g
     inkscape:label="Layer 1"
     inkscape:groupmode="layer"
     id="layer1"
     transform="translate(0,-97)">
    <path
       style="fill:#008000;stroke:#4c9b00;stroke-width:5.79999971;stroke-miterlimit:4;stroke-dasharray:none;stroke-opacity:1"
       id="path4605"
       d="m 98.747727,182.74825 c 1.361033,0.83945 2.704953,1.78744 3.737913,3.02786 0.75092,0.90173 1.21919,1.8696 1.78466,2.89003 0.31306,0.56492 0.62627,1.12975 0.9394,1.69462 0.96281,2.22267 2.23769,4.27515 3.92846,6.01574 0.60955,0.62751 1.26094,1.21335 1.87329,1.83814 0.31062,0.22851 0.60732,0.47726 0.93185,0.68554 0.36631,0.23511 0.76404,0.41774 1.13695,0.64223 0.45472,0.27375 0.8863,0.58528 1.34517,0.852 0.46958,0.27296 0.96359,0.50185 1.43822,0.76592 1.55967,0.86774 1.50123,0.86402 2.95755,1.80993 1.8632,1.31364 3.72123,2.70476 5.19271,4.46687 1.48477,2.00385 0.71358,1.03642 2.31063,2.90464 1.6881,1.73193 3.37405,3.51709 5.54384,4.64839 1.37531,0.71706 1.78539,0.779 3.2514,1.24683 0.15125,0.057 2.86453,1.07627 3.03336,1.14979 0.34551,0.15046 2.36876,1.18217 2.7419,1.35962 1.15822,0.55081 1.39869,0.6253 2.58373,1.09917 1.49378,0.48423 2.79746,1.34879 4.18064,2.06058 2.37378,1.22155 -0.25465,-0.19998 2.35437,1.23432 1.32408,0.7102 1.33835,0.67961 2.65722,1.5596 0.45319,0.30239 0.8722,0.65573 1.33624,0.94119 0.45278,0.27854 0.93944,0.49782 1.40878,0.74746 1.76005,0.93616 0.82614,0.49607 2.67232,1.26539 0.13358,0.0513 2.37441,0.91485 2.52854,0.96487 0.41773,0.13556 0.84916,0.22473 1.2716,0.34482 0.44229,0.12573 0.87659,0.27994 1.32239,0.39259 1.3027,0.32917 1.99494,0.40859 3.33714,0.62429 0.20403,0.028 3.00622,0.40761 3.30592,0.46926 0.64287,0.13224 2.20078,0.61497 2.85387,0.79286 1.03105,0.28084 1.44601,0.36448 2.46284,0.59549 0.26748,0.0593 1.61045,0.34185 1.92238,0.46413 1.05782,0.41465 0.45685,0.46433 1.59652,0.65385 0.59552,0.099 1.22508,0.01 1.81666,-0.0366 1.21924,0.0139 2.46255,0.28451 3.61291,0.68154 0,0 -3.22638,2.18373 -3.22638,2.18373 v 0 c -1.11678,-0.3874 -2.28964,-0.64543 -3.4789,-0.59036 -0.77367,0.032 -1.15968,0.1024 -1.9114,-0.0673 -1.17574,-0.26536 -0.54937,-0.25127 -1.58775,-0.64243 -0.35556,-0.13394 -1.56011,-0.40749 -1.87426,-0.4825 -0.96586,-0.24166 -1.46031,-0.35851 -2.43985,-0.63387 -0.99316,-0.2792 -1.79046,-0.55639 -2.80658,-0.766 -0.50374,-0.10392 -1.0148,-0.16867 -1.52342,-0.24526 -0.58335,-0.0878 -1.16822,-0.16532 -1.75233,-0.24798 -1.28176,-0.2046 -2.16638,-0.31814 -3.42072,-0.62381 -1.75865,-0.42856 -3.46722,-1.03821 -5.12948,-1.74973 -1.87183,-0.80289 -0.92486,-0.34208 -2.67576,-1.30562 -0.47679,-0.26238 -0.96932,-0.49777 -1.43142,-0.78525 -0.45568,-0.28348 -0.86682,-0.634 -1.31772,-0.92501 -0.94039,-0.60692 -1.70518,-0.9964 -2.67739,-1.51984 -4.50924,-2.33048 1.61818,0.8239 -2.39594,-1.20618 -1.3715,-0.69361 -2.65495,-1.55419 -4.12277,-2.05209 -1.26241,-0.51764 -1.35707,-0.53313 -2.58913,-1.13243 -0.78722,-0.38291 -1.90472,-0.99423 -2.70379,-1.33963 -0.0932,-0.0403 -2.91764,-1.11693 -3.00214,-1.14917 -1.44368,-0.48709 -1.9446,-0.58805 -3.29642,-1.31964 -2.17831,-1.17888 -3.8793,-3.00777 -5.59488,-4.75498 -0.39898,-0.47062 -0.80985,-0.93142 -1.19694,-1.41188 -0.38538,-0.47834 -0.71976,-0.99741 -1.11972,-1.46363 -1.47764,-1.72243 -3.29205,-3.11955 -5.15864,-4.38891 -0.45411,-0.3007 -0.89647,-0.61994 -1.36234,-0.90209 -1.11994,-0.67827 -1.90712,-1.02329 -3.03516,-1.65918 -0.46447,-0.26182 -0.91442,-0.54868 -1.37555,-0.81634 -0.39311,-0.22819 -0.80809,-0.42014 -1.18704,-0.67115 -0.33453,-0.22159 -0.6316,-0.49512 -0.94739,-0.74268 -0.61063,-0.63264 -1.26205,-1.22603 -1.85595,-1.87439 -1.64927,-1.8005 -2.87721,-3.91295 -3.89754,-6.11998 -0.32163,-0.55989 -0.64279,-1.12004 -0.96489,-1.67966 -0.49242,-0.8555 -1.109051,-2.01719 -1.756663,-2.78944 -1.019514,-1.21575 -2.333358,-2.15328 -3.74563,-2.85208 0,0 3.19051,-2.12621 3.19051,-2.12621 z"
       inkscape:connector-curvature="0" />
    <path
       style="fill:#008000;stroke:#4c9b00;stroke-width:5.79999971;stroke-miterlimit:4;stroke-dasharray:none;stroke-opacity:1"
       id="path4607"
       d="m 97.07511,182.66378 c 0.487487,-0.27274 -3.798789,0.76884 -2.841402,1.11226 0.63037,0.22612 1.360993,-1.07479 1.894218,-0.66962 0.449905,0.34187 -0.793933,0.80442 -1.200822,1.19651 -2.097953,2.02162 -1.427787,1.2062 -5.457015,3.56955 -1.58319,0.5921 -2.998703,1.55745 -4.600843,2.10381 -0.408244,0.21099 -0.867695,0.29229 -1.284769,0.47932 -0.272375,0.12215 -0.5271,0.28034 -0.790649,0.42051 -0.287197,0.13681 -0.569521,0.28436 -0.861594,0.41042 -0.710396,0.30662 -0.97495,0.36936 -1.702798,0.59737 -0.261424,0.12718 -1.034991,0.52872 -0.784272,0.38154 0.82804,-0.48605 3.336398,-1.90102 2.517841,-1.39915 -1.339056,0.821 -2.723142,1.56622 -4.080219,2.35708 -0.829958,0.48366 3.351969,-1.87703 2.498844,-1.43551 -4.371321,2.41368 -2.718879,1.54972 -4.908851,2.68257 0.876503,-0.47578 1.726768,-1.00345 2.629511,-1.42734 0.165039,-0.0775 -0.256802,0.25945 -0.395169,0.37819 -0.143589,0.12321 -0.28679,0.25006 -0.449506,0.34662 -1.32162,0.78432 -2.731881,1.4247 -3.999476,2.29363 -0.800803,0.54895 1.680168,-0.99512 2.591938,-1.32876 0.36322,-0.13291 -0.609354,0.47652 -0.914032,0.71477 -0.325081,0.30393 -0.660432,0.59723 -0.975238,0.91179 -0.751843,0.75125 -0.939901,1.07745 -1.713297,1.75625 -1.840116,1.61504 -4.241212,2.75678 -6.290368,3.9381 -0.379653,0.17694 -0.76245,0.34728 -1.13896,0.5308 -0.19618,0.0956 -2.62954,1.33709 -2.690764,1.36982 -0.51067,0.27307 -2.096135,0.85688 -1.51714,0.84641 0.679456,-0.0123 1.172417,-0.86189 1.851917,-0.85246 0.533127,0.007 -0.899353,0.57296 -1.349031,0.85944 -1.233451,0.79735 -2.559434,1.44733 -3.728606,2.34456 -0.421569,0.32351 -0.80399,0.69509 -1.208633,1.03953 -0.456618,0.3887 -0.940811,0.7464 -1.375127,1.15987 -0.51449,0.48978 -0.977966,1.03051 -1.46695,1.54576 -0.528286,0.63935 -1.075637,1.26341 -1.584854,1.91805 -0.524899,0.6748 -0.984928,1.39877 -1.516179,2.06858 -1.242394,1.56641 -1.974916,2.33614 -3.491815,3.63127 -0.576821,0.4925 -1.151752,0.9963 -1.794388,1.39915 -1.64405,1.0306 -3.36777,1.92828 -5.051655,2.89243 -1.60427,0.73487 -2.424168,1.05377 -3.936476,1.9736 -0.341445,0.20768 1.385252,-0.7836 1.073967,-0.53296 -0.609801,0.491 -1.314569,0.85087 -1.980361,1.26276 -3.356031,2.0762 -1.20187,0.50823 -4.632595,3.31806 -3.800684,3.98196 -1.70639,1.67336 -5.371521,5.99028 -0.834284,0.98265 -1.684753,1.95161 -2.510376,2.94155 -0.848463,1.01733 -2.355464,3.02257 -3.422083,4.02297 -0.340634,0.31949 -0.75431,0.55085 -1.131464,0.82627 4.888681,-1.1733 -3.62218,3.13382 -4.350325,1.75065 -0.07394,-0.14046 -0.01935,-0.31688 -0.02903,-0.47532 0,0 3.624503,-1.61467 3.624503,-1.61467 v 0 c -0.741358,-0.16696 -0.60989,0.13847 -2.744549,1.71032 0.429269,-0.2673 0.901124,-0.47603 1.287806,-0.80191 1.231288,-1.03768 2.714999,-2.97352 3.68805,-4.11621 0.843168,-0.99015 1.709155,-1.96078 2.549153,-2.95363 4.36229,-5.15608 0.837098,-1.19827 5.190305,-5.97895 0.776772,-0.67236 1.503442,-1.40739 2.330318,-2.01707 0.676249,-0.49863 1.44766,-0.85349 2.162233,-1.29545 3.596865,-2.22461 7.133635,-4.58904 11.022661,-6.28544 -0.375624,0.24074 -1.453684,1.02593 -1.126869,0.72222 4.764009,-4.42716 -1.18179,1.88329 3.697584,-3.0485 1.78376,-1.80292 3.03801,-3.985 4.685805,-5.89896 0.465514,-0.52226 0.898353,-1.0756 1.396543,-1.56679 0.419206,-0.41332 0.905795,-0.7524 1.348853,-1.14004 0.401712,-0.35147 0.769657,-0.74174 1.185048,-1.07693 1.153343,-0.93065 2.481003,-1.58145 3.729606,-2.36566 2.888292,-1.75103 0.919647,-0.54451 5.865019,-3.6855 1.729893,-1.06163 3.608877,-1.8689 5.40853,-2.79959 -0.709763,0.41996 -1.39628,0.88195 -2.129284,1.25987 -0.366776,0.18911 0.689258,-0.45416 1.026853,-0.69147 0.310679,-0.21839 0.624284,-0.43405 0.917543,-0.67533 0.986171,-0.81137 1.738014,-1.84039 2.674557,-2.7032 2.144543,-1.63974 0.574945,-0.47891 4.882726,-3.23412 0.825529,-0.61578 -1.779862,1.03679 -2.665021,1.56327 -0.158731,0.0944 0.341937,-0.15077 0.485513,-0.26693 0.159081,-0.12872 0.238266,-0.34537 0.409578,-0.45729 1.295995,-0.84672 2.648384,-1.60382 3.972579,-2.40572 0.270216,-0.13541 1.063442,-0.57192 0.810654,-0.40624 -0.81574,0.53467 -3.361875,1.97767 -2.503006,1.51547 1.387687,-0.7468 2.723658,-1.58599 4.090717,-2.36991 0.837991,-0.48053 -3.336009,1.94968 -2.503487,1.45974 1.361752,-0.8014 2.712114,-1.62289 4.091183,-2.39411 0.257191,-0.14383 0.541705,-0.23215 0.812557,-0.34822 0.769101,-0.26139 0.904592,-0.28726 1.658953,-0.62832 0.998681,-0.45153 1.955723,-0.99257 3.007646,-1.32068 1.521529,-0.61755 2.955478,-1.41984 4.461266,-2.07228 -0.67869,0.40988 -1.266952,1.03707 -2.036069,1.22963 -0.486341,0.12176 0.759076,-0.65572 1.122635,-1.00094 2.665471,-2.53104 0.131932,-0.73249 5.637885,-4.28397 0.476295,-0.30722 0.981908,-0.58296 1.518909,-0.76427 0.486984,-0.16442 1.013079,-0.17442 1.519621,-0.26162 0,0 -3.094694,2.24842 -3.094694,2.24842 z"
       inkscape:connector-curvature="0" />
    <path
       style="fill:#008000;stroke:#4c9b00;stroke-width:5.79999971;stroke-miterlimit:4;stroke-dasharray:none;stroke-opacity:1"
       id="path4609"
       d="m 11.053319,221.67852 c 0.462727,-0.36467 0.914309,-0.74394 1.388179,-1.09401 0.479374,-0.35413 0.988171,-0.66702 1.470178,-1.01756 0.838038,-0.60946 2.103978,-1.60055 2.883518,-2.29016 1.234791,-1.09234 1.912068,-1.82744 3.081755,-3.01949 0.55249,-0.61789 1.112265,-1.22935 1.657469,-1.85368 0.611399,-0.70014 1.235007,-1.39083 1.812128,-2.11947 1.122474,-1.41719 2.102593,-3.03099 3.314124,-4.38153 0.763157,-0.85071 2.470542,-2.31229 3.362331,-3.09678 2.862172,-2.18661 6.160457,-3.7206 9.417825,-5.22214 0.817602,-0.37688 1.624137,-0.7812 2.462284,-1.10988 0.902565,-0.35394 1.835898,-0.62375 2.753849,-0.93563 0.907569,-0.3579 1.81514,-0.71579 2.722711,-1.07369 2.969882,-1.34417 2.916161,-1.23868 6.142961,-3.73648 0.722161,-0.55901 1.416216,-1.15467 2.152573,-1.69484 0.764111,-0.56053 1.564209,-1.07026 2.346314,-1.6054 2.88884,-1.92058 5.890456,-3.6579 9.074264,-5.05738 0.518856,-0.22807 1.101227,-0.26875 1.652736,-0.39937 1.549984,-0.36712 1.174072,-0.2789 2.661774,-0.57486 1.936168,-0.17949 3.863271,-0.39733 5.789978,-0.66062 1.443706,-0.28672 2.916584,-0.45105 4.383066,-0.57277 0.499295,-0.0414 1.001233,-0.0449 1.500621,-0.0852 0.861285,-0.0695 1.719308,-0.17582 2.580368,-0.24809 1.469787,-0.37757 2.961187,-0.30446 4.454871,-0.2264 0.76508,-0.006 1.530046,-0.0393 2.295152,-0.0275 0.460372,-0.0103 0.920904,-0.002 1.381347,-0.002 0,0 -3.202148,2.32722 -3.202148,2.32722 v 0 c -0.457095,0.002 -0.914752,0.0172 -1.371431,-0.008 -0.767109,0.006 -1.535674,0.0336 -2.301716,0.003 -0.501105,-0.0391 -1.004779,-0.1012 -1.508176,-0.0956 -0.944877,0.0106 -1.8757,0.16484 -2.809748,0.2909 -2.821138,0.20552 -5.656429,0.37859 -8.438194,0.91567 -1.920817,0.27538 -3.842803,0.51754 -5.776873,0.67754 -1.026015,0.20242 -1.560626,0.29725 -2.595705,0.54776 -0.530659,0.12843 -1.387467,0.91788 -1.585982,0.40927 -0.206732,-0.52966 1.891893,-1.14207 1.327806,-1.07074 -0.315319,0.0399 -4.149648,2.51839 -4.232904,2.57125 -0.779537,0.52483 -1.580147,1.01964 -2.338605,1.5745 -0.596773,0.43657 -3.433479,2.77682 -4.098901,3.23935 -0.686212,0.47699 -1.417026,0.88682 -2.137994,1.30944 -5.733471,3.36092 -3.775007,2.35617 -8.102481,4.36448 -0.910768,0.35465 -1.816418,0.72273 -2.732299,1.06395 -0.916004,0.34126 -1.856058,0.61802 -2.762761,0.98328 -0.839724,0.33827 -1.651151,0.74306 -2.471764,1.12536 -0.792636,0.36927 -1.526572,0.89057 -2.367796,1.12926 -0.370506,0.10513 1.242759,-0.90474 0.90764,-0.71495 -0.630962,0.35735 -1.200412,0.81379 -1.800619,1.22069 -0.677632,0.58001 -2.928938,2.47931 -3.478099,3.0713 -1.291743,1.39249 -2.15814,2.90231 -3.317499,4.39661 -0.561262,0.72341 -1.168386,1.41013 -1.762601,2.10672 -0.532237,0.62395 -1.077722,1.23646 -1.616583,1.85469 -0.976223,1.0202 -1.95039,2.07754 -2.998627,3.02748 -0.565451,0.51242 -2.250506,1.87494 -2.862776,2.32024 -0.47726,0.34711 -0.994828,0.63671 -1.469788,0.98696 -0.444096,0.32749 -0.856344,0.6961 -1.284516,1.04415 0,0 -3.551236,1.43339 -3.551236,1.43339 z"
       inkscape:connector-curvature="0" />
    <path
       style="fill:#008000;stroke:#4c9b00;stroke-width:5.79999971;stroke-miterlimit:4;stroke-dasharray:none;stroke-opacity:1"
       id="path4611"
       d="m 96.711298,185.17417 c -1.833039,3.29864 -4.141983,6.33157 -7.220442,8.56221 -0.535673,0.38815 -1.11469,0.71362 -1.688508,1.04276 -1.476883,0.84715 -2.97489,1.65692 -4.462335,2.48538 0.813292,-0.44337 -3.227713,1.81172 -2.469211,1.27894 0.648764,-0.4557 1.328322,-0.88863 2.066872,-1.1769 0.373716,-0.14587 -0.643305,0.48041 -0.948769,0.74047 -0.736359,0.62692 -1.429007,1.30345 -2.146694,1.95165 -1.502781,1.57255 -3.143258,3.00733 -4.390594,4.80559 -0.443881,0.63993 -1.294781,2.11522 -1.709335,2.82125 -0.629891,1.0339 -1.337442,1.58572 -2.243524,2.35913 -0.72073,0.6152 -1.428573,1.24538 -2.147856,1.86227 -1.331251,1.05149 -2.607349,2.20517 -3.779768,3.43464 -0.707729,0.74217 -1.072761,1.25079 -1.725298,2.07843 -0.317518,0.54779 -0.658207,1.08279 -0.952558,1.64336 -0.182499,0.34755 -1.965566,4.09613 -2.116603,4.39043 -0.805625,1.56974 -1.747838,3.04787 -2.668662,4.54946 -0.230833,0.59151 -0.896403,0.92322 -1.125651,1.50805 -0.08889,0.22676 -0.365657,1.36479 -0.401275,1.50622 -0.160428,1.49975 -0.597514,2.95337 -0.717185,4.45819 -0.09281,1.1671 -0.04354,1.68217 -0.0026,2.82423 0.199398,1.81029 0.125225,3.6262 0.105704,5.44189 -0.01378,1.95532 0.0051,3.91077 0.0019,5.86614 -0.05869,2.05738 -0.04609,4.11571 0.0055,6.173 0,0 -3.437348,1.75153 -3.437348,1.75153 v 0 c 0.04937,-2.05973 0.06406,-4.12045 0.008,-6.18029 -7.94e-4,-1.95528 -0.0016,-3.91047 -0.01056,-5.86576 0.01738,-1.82045 0.06179,-3.64223 -0.03399,-5.46145 -0.02363,-0.99608 -0.06103,-1.87361 -0.01278,-2.87441 0.02249,-0.46634 0.05607,-0.93306 0.120832,-1.39543 0.05163,-0.36859 0.16201,-0.72675 0.227727,-1.0931 0.11171,-0.62272 0.19131,-1.34346 0.268208,-1.97362 0.06254,-0.28319 0.130644,-0.56521 0.187622,-0.84958 0.02148,-0.10719 0.147492,-0.97758 0.246681,-1.15067 0.0849,-0.14815 1.168167,-1.04168 1.099283,-1.15966 1.008925,-1.5045 2.038162,-2.98187 2.878159,-4.59266 1.076132,-2.06361 1.028811,-2.30764 2.014466,-4.36681 0.270354,-0.56481 0.577464,-1.11127 0.866198,-1.66691 0.524767,-0.70564 1.051941,-1.46084 1.65372,-2.10892 0.183187,-0.19728 1.588725,-1.51899 1.755778,-1.68059 0.31551,-0.3052 0.606028,-0.63713 0.937932,-0.92443 0.362513,-0.31379 0.760891,-0.58357 1.141338,-0.87536 0.386831,-0.33684 0.773665,-0.67368 1.160497,-1.01052 0.300535,-0.2749 0.595823,-0.55563 0.901599,-0.82468 0.255389,-0.22472 0.517748,-0.44148 0.781524,-0.65629 0.187238,-0.15248 0.398825,-0.27641 0.571304,-0.4454 0.370287,-0.36281 0.532244,-0.91283 1.021223,-1.17293 0.880822,-1.46069 1.690883,-2.97878 2.769404,-4.30879 0.83988,-1.03572 1.255382,-1.29695 2.17908,-2.2403 0.37457,-0.38254 0.729387,-0.78393 1.094081,-1.1759 0.363069,-0.32601 0.731856,-0.64577 1.089207,-0.97804 0.367723,-0.34192 1.48757,-1.48634 1.958353,-1.77963 2.24241,-1.39699 4.538536,-2.58786 6.864051,-3.80677 -0.629954,0.39414 -1.474091,0.56654 -1.889865,1.18244 -0.38439,0.5694 1.218395,-0.64154 1.785995,-1.02858 3.094728,-2.11026 5.455658,-5.01878 7.145295,-8.34258 0,0 3.393964,-1.5507 3.393964,-1.5507 z"
       inkscape:connector-curvature="0" />
    <path
       style="fill:#008000;stroke:#4c9b00;stroke-width:5.79999971;stroke-miterlimit:4;stroke-dasharray:none;stroke-opacity:1"
       id="path4613"
       d="m 91.955468,183.71058 c 0.984612,0.66427 1.967815,1.30454 3.054686,1.78791 0.30752,0.13676 0.640696,0.22031 0.931243,0.39018 0.902446,0.52763 1.332318,1.06984 2.074567,1.81731 1.073224,1.02465 2.023396,2.19265 3.241466,3.05774 0.33974,0.24128 0.89338,0.40537 1.09724,0.83836 0.0595,0.12635 0.0193,0.27862 0.029,0.41793 -0.01,0.30213 -0.41009,0.40151 -0.47616,0.67031 -0.11239,0.45723 0.0282,1.05788 0.0601,1.51528 0.0181,1.86934 -0.0238,3.73974 -0.0631,5.60881 -0.10465,2.62589 0.0384,5.25088 0.0446,7.87599 -0.0554,3.05608 -0.0501,6.11232 -0.10102,9.1685 -0.0944,3.8574 0.0649,7.71412 0.0457,11.5714 -0.0399,3.41135 -0.002,6.82275 -0.006,10.23405 0.0482,1.45471 -0.0414,2.92364 0.11699,4.3738 -0.036,0.29982 0.0286,0.61607 -0.0163,0.91359 -0.0253,0.16737 -0.22764,0.89781 -0.26633,1.04124 -0.2243,0.89469 -0.89253,1.48768 -1.4565,2.17212 -0.474838,0.57627 -0.950485,1.24236 -1.38977,1.83903 -1.699032,2.07162 -3.221548,4.33294 -5.236482,6.1251 -0.345657,0.30745 -0.728242,0.57067 -1.092362,0.856 -1.857743,1.14168 -1.897248,1.18844 -4.835707,2.68173 -0.370166,0.18812 -0.769361,0.11703 -1.114764,-0.0585 0,0 3.303601,-2.21536 3.303601,-2.21536 v 0 c 0.192788,0.034 0.19232,0.0442 0.46641,-0.0104 0.138432,-0.0276 0.523552,-0.19826 0.406122,-0.11995 -1.588003,1.05912 -4.095197,2.41187 -1.726613,1.11529 0.3834,-0.27687 0.786625,-0.52819 1.150197,-0.83063 1.111816,-0.92486 1.479357,-1.4286 2.429788,-2.54896 0.368731,-0.43465 0.746233,-0.86241 1.097166,-1.31155 2.802318,-3.58657 -0.992161,1.04741 1.672603,-2.17491 0.28117,-0.40023 0.987224,-1.41799 1.316337,-1.84248 0.175347,-0.22616 0.366331,-0.43976 0.5495,-0.65964 0.14647,-0.15085 0.307482,-0.28883 0.439414,-0.45255 0.200946,-0.24935 0.352449,-0.58831 0.494546,-0.87196 0.04012,-0.18571 0.0681,-0.37447 0.120349,-0.55714 0.03743,-0.13086 0.119779,-0.24743 0.147867,-0.3806 0.06047,-0.2867 -0.04869,-0.60608 -0.0163,-0.89698 0.146632,-1.49146 0.07762,-2.99747 0.116988,-4.49302 -0.0042,-3.40923 0.03385,-6.81856 -0.0061,-10.22783 -0.01942,-3.87283 0.139652,-7.74512 0.04586,-11.61806 -0.0512,-3.0219 -0.04657,-6.04388 -0.101491,-9.06569 0.01071,-2.63813 0.153067,-5.2762 0.03337,-7.91493 -0.04289,-1.84331 0.0031,-3.68479 -0.03281,-5.52764 -0.06237,-0.78054 -0.02331,-0.41673 -0.120033,-1.15952 -0.06392,-0.49091 -0.145727,-0.94343 0.420224,-1.12539 0.243049,-0.1354 0.322493,-0.10172 -0.05041,-0.42907 -0.222777,-0.19556 -0.498134,-0.32365 -0.727642,-0.51126 -1.154834,-0.94402 -2.071108,-2.1403 -3.206414,-3.10617 -0.357494,-0.33272 -0.691372,-0.69278 -1.072483,-0.99817 -0.9374,-0.75114 -0.926097,-0.58234 -1.935271,-1.07065 -0.936439,-0.45311 -1.06921,-0.59055 -1.998916,-1.16113 -0.362752,-0.22263 -0.729065,-0.4394 -1.093597,-0.6591 0,0 3.236738,-2.07244 3.236738,-2.07244 z"
       inkscape:connector-curvature="0" />
    <path
       style="fill:#008000;stroke:#4c9b00;stroke-width:5.79999971;stroke-miterlimit:4;stroke-dasharray:none;stroke-opacity:1"
       id="path4615"
       d="m 93.253998,192.98723 c -0.670999,3.40325 0.08301,-0.31848 -0.614532,2.83821 -0.152662,0.69087 -0.09778,0.8858 -0.428495,1.48239 -0.08008,0.14446 -0.523404,0.62257 -0.622594,0.73284 -0.101134,0.16348 -0.223419,0.31564 -0.303403,0.49044 -0.121877,0.26635 -0.200551,0.55044 -0.29909,0.82628 -0.460798,1.28993 -0.40998,1.11442 -0.815536,2.51371 -0.234373,0.80866 -0.842632,3.00595 -1.050835,3.75484 -0.196101,0.73217 -0.413427,1.459 -0.588304,2.19654 -0.166264,0.70121 -0.283498,1.41319 -0.434665,2.11781 -0.38862,1.81141 -0.808651,3.61272 -1.162928,5.4315 -0.967698,3.29864 -1.662925,6.66654 -2.382491,10.02606 -0.317945,1.77263 -0.950659,3.45797 -1.454126,5.17953 -0.0955,0.32656 -0.159695,0.66227 -0.266317,0.98537 -0.388419,0.95231 -0.226057,0.49628 -0.500618,1.36319 -0.346003,1.09708 -0.24779,2.23324 -0.196014,3.36024 0.04319,0.94 0.03433,1.02464 0.04265,1.999 -0.03409,2.44745 -0.04679,4.89441 -0.04079,7.34203 -0.08257,1.42529 0.131011,1.87121 1.142679,2.85945 0.390401,0.38136 0.864262,0.67766 1.221399,1.09034 1.343181,1.55206 1.902251,2.89334 2.892843,4.74142 0,0 -2.998925,1.72804 -2.998925,1.72804 v 0 c -1.08181,-1.81055 -1.637178,-3.01992 -3.052199,-4.50091 -0.393266,-0.4116 -0.900409,-0.69941 -1.316156,-1.08829 -1.119508,-1.04715 -1.367391,-1.58413 -1.269006,-3.10716 -0.0057,-2.4406 -0.0013,-4.88119 0.01119,-7.32173 -0.03724,-1.80981 -0.300389,-3.64484 0.04169,-5.43704 0.535011,-1.84541 -0.223626,0.61422 0.561734,-1.38711 0.130532,-0.33264 0.203562,-0.68518 0.316264,-1.02428 0.571995,-1.721 1.304552,-3.39191 1.591543,-5.19775 0.263189,-1.33036 0.483087,-2.66957 0.774396,-3.99405 0.120369,-0.54728 0.294719,-1.08174 0.415517,-1.62892 0.121304,-0.54949 0.18569,-1.11066 0.310407,-1.65939 0.02014,-0.0886 0.701151,-2.53125 0.738748,-2.66632 0.228547,-1.28167 0.530117,-2.53473 0.852403,-3.79667 0.146108,-0.5721 0.320802,-1.13696 0.454303,-1.71213 0.164793,-0.70998 0.276667,-1.43153 0.440224,-2.14179 0.168587,-0.73212 0.370629,-1.45612 0.555943,-2.18418 0.440663,-1.69046 0.822603,-3.40583 1.315601,-5.08214 0.109916,-0.37375 0.254037,-0.73688 0.363527,-1.11075 0.08472,-0.28933 0.121782,-0.59211 0.218744,-0.87757 0.06497,-0.19127 0.176363,-0.36348 0.264543,-0.54523 0.09991,-0.14311 0.175401,-0.30684 0.299734,-0.42934 0.539393,-0.53145 0.343789,0.14132 0.717764,-0.80872 0.112421,-0.28559 0.158382,-0.59306 0.236614,-0.88984 0.467453,-1.77337 0.278479,-0.90807 0.588182,-2.77445 0,0 3.42837,-1.69347 3.42837,-1.69347 z"
       inkscape:connector-curvature="0" />
    <path
       style="fill:#008000;stroke:#4c9b00;stroke-width:5.79999971;stroke-miterlimit:4;stroke-dasharray:none;stroke-opacity:1"
       id="path4617"
       d="m 103.35644,194.3895 c 0.73888,1.65465 1.8723,3.01707 3.45368,3.92874 0.20422,0.11773 2.07732,0.84921 2.34787,0.97531 0.39267,0.18303 0.76863,0.39996 1.15294,0.59994 2.85148,1.58245 5.09557,3.96169 6.72782,6.77149 0.43607,0.75067 0.79647,1.54282 1.1947,2.31423 0.87424,1.85198 1.48247,3.8482 2.52132,5.62347 0.4056,0.69311 0.96082,1.30897 1.3991,1.98422 0.31885,0.94015 0.0904,0.18235 0.34762,1.40724 0.0976,0.46472 0.23255,0.9219 0.31056,1.39031 0.10677,0.64116 0.13702,1.29348 0.24315,1.93475 0.12671,0.76561 0.31374,1.52011 0.45493,2.28318 0.16533,0.8936 0.3097,1.79095 0.46455,2.68643 0.1502,2.77709 0.52488,5.53383 0.68576,8.31 0.0345,0.59582 0.005,1.19541 0.064,1.78933 0.0281,0.28304 0.37336,1.8619 0.44876,2.21392 0.11718,0.29843 0.23149,0.598 0.35155,0.89528 0.12831,0.31772 0.28122,0.62591 0.39354,0.94963 0.49823,1.4359 0.76257,2.94636 1.23039,4.39271 0.20696,0.63988 0.4521,1.26678 0.67816,1.90017 1.04029,2.03097 2.25614,3.97964 3.77658,5.68993 0.44968,0.50582 0.96343,0.95097 1.43488,1.43655 0.19087,0.19659 1.84816,1.97337 2.11952,2.26401 1.08206,1.05743 2.09316,3.40273 3.66766,3.77264 0.13115,0.0308 0.26624,-0.0414 0.39936,-0.062 0.10021,-0.0775 0.20042,-0.15508 0.30063,-0.23262 0,0 -3.09054,2.4478 -3.09054,2.4478 v 0 c -0.13595,0.0266 -0.27191,0.0533 -0.40786,0.0799 -0.14911,-0.0371 -0.30794,-0.0466 -0.44732,-0.11124 -1.68009,-0.77942 -2.45446,-2.64086 -3.64355,-3.94239 -0.67348,-0.76909 -1.32767,-1.55543 -2.0188,-2.30868 -0.46383,-0.50553 -0.97323,-0.96914 -1.42122,-1.48875 -1.51754,-1.76015 -2.76307,-3.73154 -3.87024,-5.76875 -0.24212,-0.63342 -0.50291,-1.26003 -0.72637,-1.90027 -0.49342,-1.41368 -0.81361,-2.88812 -1.32374,-4.29555 -0.11761,-0.32448 -0.27238,-0.6343 -0.4028,-0.95385 -0.12993,-0.31834 -0.25213,-0.63977 -0.37819,-0.95965 -0.0999,-0.55639 -0.34242,-1.82552 -0.36486,-2.33762 -0.0266,-0.60694 0.0515,-1.21464 0.0421,-1.82209 -0.0428,-2.77611 -0.42451,-5.52698 -0.62439,-8.29268 -0.17234,-0.88195 -0.34468,-1.7639 -0.51702,-2.64585 -0.1767,-0.75751 -0.37713,-1.50988 -0.5301,-2.27254 -0.12334,-0.61486 -0.16419,-1.24492 -0.29831,-1.85752 -0.19298,-0.88147 -0.53606,-1.74794 -0.74447,-2.62849 -0.37746,-0.72527 -0.89071,-1.3795 -1.25637,-2.10783 -0.23783,-0.47373 -0.41621,-0.97506 -0.62156,-1.46376 -0.88248,-2.1001 -0.85689,-2.05582 -1.74105,-4.22996 -0.3994,-0.75565 -0.75679,-1.53504 -1.19819,-2.26694 -1.65527,-2.74463 -3.94776,-5.02326 -6.79436,-6.50847 -0.38408,-0.18978 -0.76411,-0.38801 -1.15225,-0.56936 -0.62402,-0.29156 -1.76741,-0.73401 -2.32935,-1.09603 -1.57434,-1.01423 -2.75255,-2.45067 -3.62896,-4.08934 0,0 3.32077,-1.8289 3.32077,-1.8289 z"
       inkscape:connector-curvature="0" />
    <path
       style="fill:#008000;stroke:#4c9b00;stroke-width:5.79999971;stroke-miterlimit:4;stroke-dasharray:none;stroke-opacity:1"
       id="path4619"
       d="m 102.82168,182.33943 c 2.92142,0.57819 5.8836,0.90795 8.84467,1.20019 0.89943,0.0888 1.80283,0.13856 2.70024,0.24584 1.12321,0.13427 3.3026,0.51976 4.45872,0.71728 1.95092,0.31582 3.91232,0.55887 5.87227,0.80976 0.62922,0.0805 1.26224,0.13568 1.88759,0.24221 0.64823,0.11042 2.9553,0.64372 3.63545,0.79836 1.56815,0.63689 3.18871,1.17907 4.70504,1.93911 1.43783,0.72069 1.08863,0.67401 2.46266,1.50381 0.40655,0.24552 0.83131,0.45953 1.24696,0.68929 1.45368,0.7194 3.08066,0.85878 4.59432,1.38965 0.84224,0.29538 1.79247,0.73714 2.60429,1.09715 1.96471,0.61331 3.84373,1.46462 5.74359,2.24911 0.44463,0.1836 0.88137,0.38826 1.33556,0.54678 0.42279,0.14755 0.86094,0.24671 1.29142,0.37006 0.47335,0.12759 0.95303,0.2337 1.42007,0.38277 0.57506,0.18355 1.12506,0.44189 1.70358,0.61422 3.07802,0.91691 6.28244,1.30524 9.44414,1.80317 0.8411,0.15817 1.67629,0.35186 2.5233,0.4745 0.85944,0.12445 1.72839,0.17117 2.59159,0.26611 0.89209,0.0981 1.78019,0.23379 2.67415,0.31305 2.60893,0.23131 5.23918,0.30945 7.85649,0.35896 0.13398,0.007 2.6965,0.14712 3.15295,0.16038 0.68547,0.0199 0.49631,0.0525 0.90619,-0.0624 0,0 -3.19662,2.36304 -3.19662,2.36304 v 0 c -1.24782,-0.1913 -2.52066,-0.23049 -3.77445,-0.35727 -2.61119,-0.0908 -5.23311,-0.18076 -7.83657,-0.41168 -0.89658,-0.0795 -1.78864,-0.20357 -2.68328,-0.30257 -0.8715,-0.0965 -1.74741,-0.1576 -2.61511,-0.28378 -0.84537,-0.12293 -1.68041,-0.30871 -2.52062,-0.46306 -3.20934,-0.48609 -6.44364,-0.93216 -9.58259,-1.78524 -0.58702,-0.15954 -1.15337,-0.38809 -1.73672,-0.56056 -0.4777,-0.14123 -0.96349,-0.25345 -1.44523,-0.38017 -0.43345,-0.13663 -0.87385,-0.2529 -1.30034,-0.40988 -0.44941,-0.16541 -0.8834,-0.37001 -1.32457,-0.55628 -1.898,-0.80138 -3.79448,-1.6103 -5.75664,-2.24596 -0.93747,-0.3996 -1.63891,-0.72285 -2.60303,-1.04139 -1.53766,-0.50802 -3.1912,-0.64784 -4.61812,-1.47514 -0.42026,-0.23692 -0.84771,-0.46151 -1.26079,-0.71075 -1.32657,-0.80044 -1.04552,-0.76033 -2.41709,-1.46643 -1.02615,-0.52827 -1.96584,-0.89182 -3.04843,-1.31056 -0.52438,-0.20283 -1.05339,-0.3935 -1.58009,-0.59024 -1.15737,-0.27108 -2.42616,-0.58757 -3.59753,-0.7802 -0.62595,-0.10294 -1.25842,-0.16128 -1.88759,-0.24222 -1.95594,-0.25159 -3.90644,-0.53436 -5.85418,-0.84397 -1.30675,-0.2406 -3.06114,-0.57856 -4.36117,-0.7527 -0.8791,-0.11776 -1.76358,-0.19113 -2.64515,-0.2887 -3.02335,-0.33463 -6.04702,-0.6701 -9.062388,-1.0716 0,0 3.053058,-2.14205 3.053058,-2.14205 z"
       inkscape:connector-curvature="0" />
    <path
       style="fill:#008000;stroke:#4c7900;stroke-width:5.79999971;stroke-miterlimit:4;stroke-dasharray:none;stroke-opacity:1"
       id="path4621"
       d="m 103.40178,184.19698 c 0.97574,0.28734 1.79081,0.45867 2.67591,0.97302 0.2905,0.16882 0.52807,0.41562 0.78912,0.62714 0.72021,0.58356 1.3078,1.24863 1.93103,1.93524 1.64616,1.56199 3.48526,2.98566 5.51166,4.02857 0.39618,0.2039 0.8111,0.36914 1.21664,0.5537 0.41206,0.17147 0.82786,0.3342 1.23616,0.51441 1.43605,0.63381 1.4731,0.74441 2.99744,1.30139 2.0847,0.76173 4.23859,1.34404 6.37781,1.92553 3.41895,0.82676 6.55968,2.45448 9.94884,3.38065 1.48313,0.40529 3.00994,0.67281 4.51753,0.96469 2.24907,0.3038 4.39482,0.97414 6.47827,1.85405 0.67259,0.28406 1.32109,0.6237 1.99684,0.90018 1.17349,0.48012 2.96224,1.06322 4.15716,1.46698 0.52641,0.17987 3.45822,1.19154 4.08976,1.3711 0.54043,0.15365 1.09542,0.25058 1.64156,0.3825 0.42073,0.10162 2.08332,0.54033 2.56625,0.61484 0.34911,0.0539 0.70461,0.0514 1.05691,0.077 0.63665,-0.0657 0.66755,-0.0305 1.20404,-0.19971 0.0822,-0.0259 0.15691,-0.12609 0.23879,-0.0992 0.27498,0.0904 0.33479,0.49142 0.40223,0.72085 0.0268,0.10177 0.0119,0.22534 0.0803,0.30531 0.0478,0.0559 0.14527,0.0237 0.2165,0.0418 0.16472,0.0419 0.33617,0.0677 0.49081,0.1382 0.23029,0.10502 0.43312,0.26232 0.65488,0.38432 0.54402,0.29928 0.94567,0.48433 1.50092,0.75224 0,0 -3.2314,2.12917 -3.2314,2.12917 v 0 c -0.53105,-0.26625 -0.98234,-0.49428 -1.5189,-0.75569 -0.21248,-0.10352 -0.42101,-0.21619 -0.63958,-0.30615 -0.42059,-0.17312 -0.94909,-0.2132 -1.02208,-0.76163 -0.0377,-0.0866 -0.0952,-0.16698 -0.11298,-0.25968 -0.004,-0.0203 0.0459,-0.0237 0.0613,-0.01 0.0666,0.06 -0.16529,0.0759 -0.2541,0.0882 -0.59513,0.0824 -0.4782,0.0539 -1.18819,0.0498 -0.35435,-0.0449 -0.71222,-0.0677 -1.06306,-0.13478 -0.57728,-0.11036 -1.97249,-0.51617 -2.50596,-0.66314 -0.53637,-0.14777 -1.07942,-0.27255 -1.61023,-0.43918 -1.36431,-0.42826 -2.68183,-0.99766 -4.05747,-1.39271 -1.48045,-0.49978 -2.73895,-0.8981 -4.18447,-1.49039 -0.67137,-0.2751 -1.31908,-0.60542 -1.98845,-0.88533 -2.08283,-0.87099 -4.19107,-1.49855 -6.43456,-1.80626 -1.53658,-0.31847 -2.98613,-0.58923 -4.49772,-1.02782 -3.36618,-0.9767 -6.52519,-2.56701 -9.94813,-3.36034 -2.17827,-0.58128 -4.38166,-1.13122 -6.5075,-1.89037 -1.10511,-0.39464 -1.98563,-0.80885 -3.0558,-1.26899 -0.41247,-0.17735 -0.82684,-0.35029 -1.24026,-0.52544 -0.41853,-0.19128 -0.84669,-0.36277 -1.2556,-0.57384 -0.74485,-0.38448 -1.37052,-0.81672 -2.05128,-1.29995 -1.22577,-0.87008 -2.42724,-1.77988 -3.52039,-2.81485 -0.64026,-0.62888 -1.26922,-1.28059 -1.94438,-1.87335 -0.22333,-0.19607 -0.42511,-0.42423 -0.68086,-0.57558 -0.93059,-0.55068 -1.61444,-0.63223 -2.66948,-0.89786 0,0 3.14418,-2.16873 3.14418,-2.16873 z"
       inkscape:connector-curvature="0" />
    <path
       style="fill:#008000;stroke:#4c7900;stroke-width:5.79999971;stroke-miterlimit:4;stroke-dasharray:none;stroke-opacity:1"
       id="path4623"
       d="m 94.135145,184.00013 c -0.473451,0.091 -0.945544,0.1893 -1.420349,0.27291 -1.9197,0.33803 -1.270252,0.12122 -3.125438,0.6745 -1.206162,0.35972 -2.349326,0.86817 -3.526285,1.30849 -1.870258,0.24686 -3.782785,0.27814 -5.579253,0.93063 -0.354026,0.12858 -0.687414,0.3081 -1.031123,0.46216 -0.3912,0.13892 -0.779878,0.28517 -1.173602,0.41678 -0.477076,0.15947 -0.980467,0.24822 -1.438421,0.45633 -0.484965,0.22039 -1.896723,0.90848 -1.371335,0.82056 0.673899,-0.11279 1.197766,-1.12697 1.842003,-0.89933 0.536717,0.18965 -0.886426,0.71464 -1.319649,1.0839 -0.493689,0.4208 -0.973789,0.85729 -1.460683,1.28594 -1.041437,0.99644 -1.99857,1.96098 -3.143242,2.84752 -0.651904,0.50489 -1.339816,0.96195 -2.024335,1.42165 -2.938841,1.97363 -6.081517,3.64036 -9.159325,5.37694 -0.614423,0.33067 -1.226163,0.66639 -1.843272,0.99203 -0.561404,0.29625 -1.12063,0.5973 -1.692135,0.87356 -4.850942,2.34489 1.397736,-0.78223 -3.363563,1.50929 -0.502124,0.24166 -1.999763,0.98029 -1.483172,0.77133 0.645557,-0.26112 1.247653,-0.61893 1.871477,-0.9284 -1.371174,1.29957 -2.525728,2.80302 -3.707077,4.2711 -0.60497,0.7518 -1.106387,1.46563 -1.85792,2.06162 -9.261999,5.27754 -0.914032,0.50998 -0.539194,0.33482 0.256685,-0.11994 -0.412176,0.38891 -0.622271,0.579 -0.698641,0.63211 -1.35839,1.28561 -2.09345,1.87531 -4.883703,2.7644 -2.462964,1.55552 -4.660217,2.55688 -0.213074,0.0971 -0.412578,0.23007 -0.637588,0.29488 -0.231166,0.0666 -0.477136,0.0619 -0.715433,0.0948 -1.104643,0.15266 -0.447424,0.0959 -1.605259,0.14807 -0.234921,0.0503 -0.474289,0.083 -0.704763,0.15077 -0.367019,0.10795 -1.067861,0.42589 -1.409102,0.56646 -0.767707,0.31625 -1.550873,0.5851 -2.319231,0.89954 -0.479513,0.17111 -0.970767,0.45231 -1.495732,0.33036 -0.107193,-0.0249 -0.206346,-0.1266 -0.313767,-0.10269 -0.17966,0.04 -0.638233,0.36689 -0.476702,0.27866 0.840451,-0.45906 1.675746,-0.92749 2.513621,-1.39123 -0.369036,0.26654 -0.738071,0.53307 -1.107107,0.7996 0,0 -3.511301,1.39667 -3.511301,1.39667 v 0 c 0.344636,-0.26946 0.689274,-0.53893 1.03391,-0.80838 1.383268,-0.80005 2.735712,-1.65594 4.149806,-2.40015 0.195872,-0.10309 0.431536,-0.10502 0.651799,-0.12685 0.09179,-0.009 0.182261,0.0331 0.274476,0.0351 0.4616,0.01 0.909323,-0.29473 1.332098,-0.40895 0.502803,-0.19313 1.009216,-0.37684 1.510972,-0.57267 0.97301,-0.37976 1.92283,-0.86804 2.984031,-0.93909 0.751385,-0.0645 1.534131,-0.11462 2.252739,-0.36947 1.262584,-0.44776 3.85073,-2.15163 -1.328277,0.9903 1.399231,-0.96425 0.123349,-0.003 1.407179,-1.23547 0.21777,-0.20901 0.476332,-0.37242 0.694944,-0.58056 0.192632,-0.18339 0.314325,-0.444 0.535839,-0.59121 0.9134,-0.60701 8.131974,-4.81619 0.545394,-0.37569 0.993677,-0.55733 1.367179,-1.14041 2.11161,-2.04433 1.201132,-1.45848 2.355705,-2.95592 3.632724,-4.34973 1.5025,-0.9225 2.986537,-1.87578 4.507503,-2.76751 0.828868,-0.48596 2.274181,-1.09114 3.128155,-1.4791 1.696291,-0.77062 1.697215,-0.76491 3.349035,-1.63551 0.612042,-0.32258 1.218904,-0.6549 1.828355,-0.98234 -0.39166,0.24672 -1.588592,0.94799 -1.17498,0.74017 0.706586,-0.35505 1.379974,-0.77325 2.0563,-1.18301 2.603158,-1.57716 5.13548,-3.28472 7.211097,-5.5364 0.289316,-0.26112 2.320874,-2.11962 2.72062,-2.38882 1.473634,-0.99236 3.003317,-1.89938 4.52514,-2.81615 0.463483,-0.27921 0.932942,-0.5538 1.428728,-0.77053 0.857473,-0.37484 1.803284,-0.52097 2.64567,-0.93931 0.355092,-0.14105 0.702151,-0.3043 1.065273,-0.42317 0.5652,-0.18502 1.648844,-0.41056 2.228673,-0.50191 2.539899,-0.40014 -0.15539,0.0961 2.336834,-0.26396 0.332211,-0.048 0.659122,-0.12739 0.988684,-0.19109 0.745202,-0.28012 1.47854,-0.59272 2.231695,-0.85069 1.925587,-0.65956 3.930427,-0.98074 5.932858,-1.30336 0,0 -3.094689,2.24843 -3.094689,2.24843 z"
       inkscape:connector-curvature="0" />
    <path
       style="fill:#008000;stroke:#4c7900;stroke-width:5.79999971;stroke-miterlimit:4;stroke-dasharray:none;stroke-opacity:1"
       id="path4625"
       d="m 94.421001,192.80652 c -1.552358,0.0871 -2.771338,-0.0364 -4.165031,0.92996 -0.20383,0.14133 0.130527,0.56324 -0.04037,0.743 -1.464373,1.5404 -3.154759,2.84891 -4.730339,4.27536 -7.763677,7.02879 -3.58021,3.39077 -11.684842,10.1814 -8.390315,5.85289 -3.578333,2.74053 -13.530294,8.51424 -0.628486,0.36462 -1.263676,0.71861 -1.877996,1.10663 -2.194558,1.3861 -4.892773,3.03263 -6.712202,4.95274 -0.879755,0.92844 -1.527608,2.0519 -2.291413,3.07786 -2.606339,4.85096 -1.145468,1.99139 -3.595497,7.14315 -0.531691,1.11801 -1.083299,2.22658 -1.604597,3.34947 -0.430792,0.92794 -0.808834,1.88009 -1.251416,2.80247 -0.847201,1.76563 -0.994153,1.92291 -1.919787,3.39482 -0.349309,0.62119 -0.802193,1.15291 -1.29027,1.66464 -0.196924,0.20648 -0.430567,0.3818 -0.596485,0.61392 -0.407847,0.57059 -0.977847,1.89794 -1.2363,2.45604 -1.078854,2.31141 -1.454454,4.86335 -2.437833,7.20807 -0.465233,1.10928 -0.88772,1.82089 -1.45409,2.85019 -1.238482,2.03117 -2.490059,2.66091 -4.946687,3.79256 -0.04478,0.0206 -0.236759,-0.34442 -0.288311,-0.4392 -0.193204,1.45338 -0.08732,0.11663 3.090931,-1.44552 0.14309,-0.0703 -0.237177,0.21483 -0.338502,0.33794 -0.183907,0.22343 -0.175747,0.23632 -0.231929,0.43173 0,0 -3.563154,1.76527 -3.563154,1.76527 v 0 c 0.01246,-0.3698 0.1397,-0.82946 0.47924,-1.04835 3.631512,-2.34117 2.418969,-2.83364 4.012975,-2.03394 0.02521,0.0406 0.118896,0.14201 0.07563,0.12175 -0.05503,-0.0258 -0.07732,-0.0938 -0.115977,-0.14065 -1.051182,0.62998 -2.102361,1.25997 -3.15354,1.88995 -0.145963,0.0806 0.236702,-0.23496 0.359421,-0.3478 0.179702,-0.16524 0.386789,-0.30264 0.547639,-0.48628 0.23643,-0.26993 0.425228,-0.57812 0.637842,-0.86718 0.654706,-1.09699 1.00366,-1.61368 1.538759,-2.82261 1.029464,-2.32584 1.40273,-4.86506 2.387147,-7.20811 0.199864,-0.47422 0.399222,-0.94865 0.599596,-1.42266 0.15571,-0.36835 0.261422,-0.76238 0.468649,-1.10441 0.139922,-0.23094 0.372832,-0.39072 0.5569,-0.58828 0.513527,-0.55117 1.092136,-1.01828 1.478735,-1.68274 1.051547,-1.46668 1.254083,-1.65611 2.179042,-3.44666 0.482756,-0.93453 0.887852,-1.90726 1.346108,-2.85403 0.546279,-1.12864 1.127879,-2.24006 1.667369,-3.37195 3.133963,-6.57531 0.260324,-0.95138 3.528904,-7.185 0.76186,-1.05374 1.399389,-2.20966 2.285577,-3.16121 1.745049,-1.87378 4.739555,-3.79154 6.876785,-5.07822 2.337795,-1.40742 4.722979,-2.73464 7.092236,-4.08843 0.938834,-0.53644 1.923431,-0.99569 2.831854,-1.58216 2.012021,-1.29894 3.947633,-2.71259 5.921449,-4.06888 7.008579,-5.87396 4.884507,-3.9263 11.433974,-10.06426 3.59719,-3.37119 7.623243,-8.04832 12.659116,-9.12827 0.67288,-0.1443 1.37233,-0.10518 2.058498,-0.15778 0,0 -3.057517,2.22142 -3.057517,2.22142 z"
       inkscape:connector-curvature="0" />
    <path
       style="fill:#008000;stroke:#4c7900;stroke-width:5.79999971;stroke-miterlimit:4;stroke-dasharray:none;stroke-opacity:1"
       id="path4627"
       d="m 97.724496,192.4643 c 0.144843,0.25417 1.222862,2.13241 1.405816,2.50001 0.05205,0.1046 0.574537,1.38016 0.681545,1.56175 0.105479,0.17899 0.262583,0.3223 0.384803,0.4903 0.17406,0.23927 0.33575,0.4873 0.50362,0.73095 1.05137,1.06315 2.22824,1.98034 3.05898,3.24515 0.0266,0.0406 1.26915,2.24304 1.28097,2.26398 0.20323,0.42829 0.41034,0.85476 0.60968,1.28486 0.18965,0.40917 0.38888,0.81448 0.55724,1.23286 0.59928,1.48918 0.98482,3.05253 1.52059,4.56418 0.16892,0.47661 0.35726,0.94611 0.5359,1.41916 1.03855,2.50208 0.049,0.1318 1.08823,2.58178 0.18114,0.42706 0.32812,0.86987 0.53915,1.28297 1.46392,2.86564 0.0974,-0.3654 1.57263,2.78284 0.25055,0.53467 0.44708,1.09303 0.67062,1.63954 0.18235,0.51845 0.40253,1.02509 0.54706,1.55532 0.15208,0.55795 0.23406,1.13274 0.34055,1.70115 0.51653,2.75706 0.82088,5.54873 1.00567,8.34575 -0.0881,2.0886 0.17284,4.16659 0.20174,6.25225 0.0153,1.10558 -0.0141,2.1014 -0.0354,3.21267 -0.0709,5.07824 -0.32826,10.16247 -0.0302,15.23842 0.0666,1.13423 0.18497,2.26482 0.27746,3.39724 0.49384,3.10048 1.14946,6.17047 1.80303,9.23989 0.15121,0.71012 0.29867,1.42104 0.45108,2.1309 0.33605,1.56512 0.13154,0.97577 0.54195,1.97032 -3.56852,1.68898 -3.66187,2.91402 -3.43232,1.34317 0,0 3.49507,-1.81705 3.49507,-1.81705 v 0 c 0.3972,1.82199 0.26496,0.42898 -3.48326,2.34282 -0.2831,-1.42627 -0.42012,-2.87652 -0.67655,-4.30922 -0.5569,-3.11136 -1.22716,-6.20307 -1.7349,-9.32366 -0.0873,-1.14026 -0.19534,-2.27913 -0.26178,-3.42079 -0.20861,-3.58471 -0.12375,-3.50323 -0.15893,-7.07058 -0.0264,-2.67962 -0.11017,-5.35878 -0.1,-8.03879 -0.004,-1.50967 -0.004,-3.01803 -0.0483,-4.52716 -0.0192,-0.65194 -0.0906,-2.48709 -0.0921,-3.0667 -0.002,-0.62533 0.0239,-1.25044 0.0358,-1.87566 -0.0327,-0.68335 -0.0397,-1.36842 -0.0981,-2.05005 -0.17886,-2.08837 -0.53927,-4.16647 -0.93645,-6.22236 -0.10644,-0.55096 -0.18345,-1.10892 -0.32714,-1.65137 -0.13916,-0.52537 -0.34644,-1.03028 -0.51966,-1.54542 -0.22067,-0.5329 -0.41243,-1.07871 -0.66202,-1.59869 -1.48028,-3.08396 -0.11591,0.10952 -1.63382,-2.79093 -0.21484,-0.41052 -0.35927,-0.85421 -0.53932,-1.28115 -0.75343,-1.78657 -0.33912,-0.77928 -1.07576,-2.60883 -1.0314,-2.82688 -1.79266,-5.76476 -3.22395,-8.43036 -0.42376,-0.73607 -0.79582,-1.50437 -1.27062,-2.2086 -0.850022,-1.26079 -2.057043,-2.16004 -3.113278,-3.22779 -0.03545,-0.047 -0.876261,-1.15152 -0.94905,-1.2844 -0.288489,-0.52665 -0.34789,-1.02746 -0.587984,-1.57867 -0.446905,-1.026 -0.786053,-1.47152 -1.400516,-2.44448 0,0 3.282204,-1.93752 3.282204,-1.93752 z"
       inkscape:connector-curvature="0" />
    <path
       style="fill:#008000;stroke:#bac600;stroke-width:2;stroke-miterlimit:4;stroke-dasharray:none;stroke-opacity:1"
       id="path4633"
       d="m 87.164704,183.64787 c 0.08385,-2.79726 0.0039,-5.59498 0.04734,-8.393 0.105857,-4.30832 0.07112,-8.61601 0.01103,-12.92434 0.0094,-4.05982 0.08663,-8.11977 0.006,-12.17921 -0.02508,-0.25171 -0.05015,-0.50342 -0.07522,-0.75513 -0.01773,0.0688 -0.118446,0.23428 -0.05319,0.20628 1.122979,-0.48183 2.160405,-1.15497 3.298899,-1.59891 0.110056,-0.0429 -0.05493,0.22978 -0.08239,0.34467 0,0 -3.544274,1.72829 -3.544274,1.72829 v 0 c 0.01709,-0.1365 -0.05866,-0.32677 0.05125,-0.4095 1.132068,-0.85226 2.317628,-1.64369 3.566168,-2.31381 0.104653,-0.0562 0.199424,0.16698 0.21408,0.28484 0.03435,0.27627 -0.05015,0.55453 -0.07522,0.83179 -0.07901,4.05744 -0.0049,8.11531 0.006,12.17311 -0.0592,4.30459 -0.09607,8.60856 0.01103,12.9131 0.04388,2.78194 -0.03713,5.56362 0.04734,8.34476 0,0 -3.428791,1.74706 -3.428791,1.74706 z"
       inkscape:connector-curvature="0" />
    <path
       style="fill:#008000;stroke:#bac600;stroke-width:2;stroke-miterlimit:4;stroke-dasharray:none;stroke-opacity:1"
       id="path4635"
       d="m 97.801984,179.42619 c 0.180565,-10.37871 0.540356,-20.75366 0.585965,-31.13478 0.01373,-3.12405 -0.02048,-6.24814 -0.03071,-9.3722 -0.06908,-3.39506 -0.06188,-7.86952 -0.396613,-11.44084 -0.03322,-0.35439 -0.536064,-0.85452 -0.233492,-1.04199 1.004792,-0.62254 2.280746,-0.62199 3.421116,-0.93298 0,0 -3.447982,1.75683 -3.447982,1.75683 v 0 c 1.14037,-0.8511 2.099689,-2.02542 3.421122,-2.5533 0.40273,-0.16089 -0.19653,0.84782 -0.23349,1.27992 -0.32994,3.85623 -0.3208,8.04069 -0.39662,11.84501 -0.0102,3.1345 -0.0445,6.26901 -0.0307,9.40349 0.0449,10.18219 0.40409,20.35798 0.58596,30.53766 0,0 -3.244561,1.65318 -3.244561,1.65318 z"
       inkscape:connector-curvature="0" />
    <path
       style="fill:#008000;stroke:#bac600;stroke-width:2;stroke-miterlimit:4;stroke-dasharray:none;stroke-opacity:1"
       id="path4637"
       d="m 103.1774,179.84926 c 1.19872,-4.73385 2.77185,-9.37024 3.91761,-14.11891 0.86442,-3.58266 1.64644,-7.93125 2.33731,-11.57364 0.23584,-3.42836 1.06567,-6.82975 0.98225,-10.28272 -0.0397,-1.64217 -0.11492,-1.20104 -0.23426,-0.74118 0,0 3.23539,-2.32332 3.23539,-2.32332 v 0 c 0.0764,0.0972 0.21183,0.16915 0.22935,0.29155 0.0919,0.6415 -0.25381,3.61795 -0.25742,3.64592 -0.34908,2.70216 -0.91064,5.3743 -1.22011,8.08226 -0.37561,1.85011 -0.75801,3.69886 -1.12683,5.55033 -0.40002,2.00808 -0.74467,4.02747 -1.17966,6.02827 -0.3838,1.7653 -0.85687,3.51002 -1.27611,5.26724 -0.67272,2.81967 -1.36832,5.63809 -1.95575,8.47669 0,0 -3.45177,1.69751 -3.45177,1.69751 z"
       inkscape:connector-curvature="0" />
    <path
       style="fill:#008000;stroke:#ba0d00;stroke-width:2;stroke-miterlimit:4;stroke-dasharray:none;stroke-opacity:1"
       id="path4662"
       d="m 113.29921,138.46424 c -0.15592,1.05053 -0.24209,2.11317 -0.19001,3.17523 0.0142,0.28905 0.0504,0.74216 0.19128,1.00726 0.095,0.17875 0.24925,0.31904 0.37388,0.47856 0.60793,0.65275 1.34436,0.64913 2.14402,0.81958 0.23168,0.0494 0.5611,0.25949 0.8012,0.14149 0.0195,-0.049 0.009,-0.12884 0.0584,-0.14706 0.11302,-0.0416 0.92637,0.0977 1.1557,0.0988 1.75584,-0.004 1.92664,-0.7683 -2.74566,1.97254 -0.11874,-0.38948 -0.0807,-0.80749 -0.0579,-1.20863 0.0286,-1.37226 0.14149,-2.76063 -2.1e-4,-4.13008 -0.004,-0.0294 -0.0186,-0.1173 -0.0126,-0.0882 0.0238,0.11473 0.13913,0.25378 0.0659,0.34527 -0.0821,0.10265 -0.25945,0.0428 -0.38983,0.0596 -0.70622,0.0911 -0.6996,0.14743 -1.35998,-0.13996 -0.52125,-0.34292 -1.40171,-0.77362 -2.03744,-0.79337 -0.24005,-0.007 -0.47333,0.0679 -0.70148,0.12673 -0.20422,0.07 -0.40993,0.0831 -0.62177,0.0587 0,0 3.23285,-2.34224 3.23285,-2.34224 v 0 c 0.18294,-0.0278 0.36459,-0.0632 0.54756,-0.0908 1.04766,-0.0813 1.91544,0.37015 2.83181,0.8329 0.44591,0.0897 0.33516,0.10568 0.78238,0.0471 0.15565,-0.0204 0.31073,-0.0463 0.46428,-0.079 0.2027,-0.0431 0.81942,-0.33403 0.73075,0.2645 -0.13467,1.37228 -0.0287,2.75965 0.0107,4.1341 0.003,0.36418 -0.0888,0.74014 0.0134,1.09475 -3.05072,2.07365 -2.11117,2.30636 -3.97612,2.2586 -0.27023,-0.0193 -0.5774,-0.0814 -0.84496,-0.0129 -0.0682,0.0175 -0.11989,0.0798 -0.18865,0.095 -0.0593,0.0131 -0.12114,-0.009 -0.18171,-0.0134 -0.2567,-0.0833 -0.50279,-0.19029 -0.76483,-0.25942 -0.85152,-0.22464 -1.6484,-0.38742 -2.29933,-1.05131 -0.15378,-0.19684 -0.33935,-0.37254 -0.46134,-0.59051 -0.22298,-0.39842 -0.20857,-0.69679 -0.20963,-1.1309 -0.003,-1.08429 0.12985,-2.1594 0.2109,-3.23924 0,0 3.42837,-1.69347 3.42837,-1.69347 z"
       inkscape:connector-curvature="0" />
    <path
       style="fill:#008000;stroke:#ba0d00;stroke-width:2;stroke-miterlimit:4;stroke-dasharray:none;stroke-opacity:1"
       id="path4664"
       d="m 86.781284,145.82705 c -0.746246,0.54781 -1.589733,1.04004 -2.195144,1.75894 -0.0849,0.10081 -0.133538,0.22756 -0.208661,0.33585 -0.706435,1.01834 -0.03635,-0.0438 -0.642025,0.94437 -0.01119,0.0219 -0.340098,0.6926 -0.408072,0.73581 -1.175345,0.74701 -2.413169,1.39093 -3.61278,2.09832 -0.0461,0.0272 -0.168026,0.13178 -0.122211,0.10412 1.117844,-0.67502 2.182913,-1.44202 3.340037,-2.04723 0.08213,-0.043 0.03453,0.18213 0.05179,0.2732 0.02794,0.51398 0.06595,1.03476 0.05034,1.54911 -0.0044,0.0318 -0.04545,0.0958 -0.01333,0.0954 0.05587,-5.3e-4 0.08154,-0.10439 0.136893,-0.0968 0.180359,0.0249 0.342246,0.12435 0.513371,0.18653 0.215305,0.0377 0.428435,0.0912 0.645911,0.11311 1.849036,0.18643 -0.645313,-0.20416 1.392555,0.14425 0.402074,0.15165 0.828734,0.0384 1.237933,0.10143 0.998926,0.15387 0.104783,0.12098 0.892826,0.25787 0.228047,0.0396 0.565962,0.003 0.784936,-0.01 2.377562,-0.23126 1.233393,-0.0881 -2.195012,1.80314 0.06835,-0.29109 -0.0065,-0.64512 -0.01635,-0.95395 -0.01807,-0.32301 0.09434,-0.68216 0.02779,-1.00255 -0.0078,-0.0373 -0.210616,-0.14092 -0.258881,-0.14956 -0.235464,-0.36648 -0.62643,-0.46652 -0.959829,-0.70719 -0.526712,-0.38023 -0.0907,-0.1681 -0.574352,-0.37007 -0.372018,-0.18525 -0.687171,-0.47304 -1.041707,-0.68178 -0.100714,-0.0593 -0.227725,-0.068 -0.323744,-0.13464 -0.600771,-0.41691 0.02426,-0.12815 -0.276903,-0.26011 -0.05474,-0.0459 -0.09981,-0.10677 -0.164208,-0.13766 -0.201666,-0.0967 -0.445593,-0.0419 -0.641628,0.0294 1.120931,-0.61589 2.241862,-1.23177 3.362796,-1.84766 0,0 -3.723873,1.43284 -3.723873,1.43284 v 0 c 1.395114,-0.76941 2.98976,-2.74871 4.537755,-1.60557 0.07035,0.0698 0.119896,0.16228 0.201184,0.21902 0.43688,0.30496 0.923531,0.54095 1.378508,0.81764 0.546283,0.33593 1.08481,0.69179 1.587976,1.08746 0.145759,0.14445 0.355966,0.31325 0.416767,0.51496 0.09198,0.30513 -0.07164,0.6874 0.0078,0.99981 -0.03962,0.37046 0.01976,0.72327 0.08309,1.08782 -3.478726,2.11127 -2.332493,2.08053 -4.602308,2.1747 -0.44,-0.008 -0.465389,0.0177 -0.869101,-0.0817 -0.557088,-0.13717 -0.126093,-0.10516 -0.811771,-0.20263 -0.188415,-0.0268 -0.379632,-0.0289 -0.568621,-0.0513 -0.222171,-0.0263 -0.442966,-0.0632 -0.664451,-0.0947 -0.581538,-0.0726 -2.957409,-0.16916 -3.084854,-0.8866 0.06969,-0.4858 0.122375,-0.97481 0.03885,-1.46811 -0.01894,-0.0815 -0.121753,-0.19183 -0.05679,-0.24464 3.412268,-2.77366 5.397839,-3.3884 0.27322,-0.4879 -0.243258,0.13768 0.944499,-0.87447 0.460554,-0.70077 0.737267,-1.58551 -0.260556,0.40517 0.627505,-0.92651 0.09322,-0.13979 0.09492,-0.32899 0.192243,-0.46596 0.134866,-0.18981 0.319382,-0.33955 0.491509,-0.49636 0.733708,-0.66843 0.906523,-0.75864 1.723295,-1.35284 0,0 3.579151,-1.40042 3.579151,-1.40042 z"
       inkscape:connector-curvature="0" />
    <path
       style="fill:#008000;stroke:#ba0d00;stroke-width:2;stroke-miterlimit:4;stroke-dasharray:none;stroke-opacity:1"
       id="path4666"
       d="m 86.987868,154.41768 c 0.351772,0.13317 0.698905,0.27931 1.055312,0.39951 0.20719,0.0699 0.43838,0.0715 0.633534,0.1701 1.044163,0.52766 -1.970894,3.28335 -3.42103,2.35992 0,0 3.28064,-2.26286 3.28064,-2.26286 v 0 c 1.047398,-0.90015 0.151212,-0.12541 -3.137241,2.11691 -0.01537,0.0105 0.067,-0.0161 0.0503,-0.0243 -0.183734,-0.0903 -0.378004,-0.15755 -0.569182,-0.23082 -0.359553,-0.13779 -0.721894,-0.26819 -1.082841,-0.40229 0,0 3.190509,-2.12621 3.190509,-2.12621 z"
       inkscape:connector-curvature="0" />
    <rect
       style="fill:#fff30f;fill-opacity:1;stroke:#190d00;stroke-width:2;stroke-miterlimit:4;stroke-dasharray:none;stroke-opacity:1"
       id="rect4668"
       width="16.83798"
       height="15.768902"
       x="90.337097"
       y="116.05853" />
    <path
       style="fill:none;stroke:#000000;stroke-width:2.165;stroke-linecap:butt;stroke-linejoin:miter;stroke-opacity:1;stroke-miterlimit:4;stroke-dasharray:none"
       d="m 90.337096,116.05853 c 0,0 8.925042,-29.952104 16.837984,0"
       id="path4672"
       inkscape:connector-curvature="0" />
    <ellipse
       style="fill:#fff30f;fill-opacity:1;stroke:#190d00;stroke-width:2.16499996;stroke-miterlimit:4;stroke-dasharray:none;stroke-opacity:1"
       id="path4678"
       cx="99.023354"
       cy="124.34389"
       rx="0.4009043"
       ry="3.4745038" />
  </g>
</svg>
